<svg width="66" height="151" viewBox="0 0 66 151" fill="none" xmlns="http://www.w3.org/2000/svg">
<path fill-rule="evenodd" clip-rule="evenodd" d="M38.3596 2.17001V0H27.5056V2.17001H20.6305C15.2213 2.19071 0.783325 13.3648 0.730499 15.1785V29.6324C0.938539 29.6303 1.14321 29.6303 1.34337 29.6302C2.9624 29.6299 4.28643 29.6297 4.71129 28.5493C4.98574 27.7303 5.23346 26.8122 5.4688 25.9399C5.83083 24.5981 6.16357 23.3648 6.51935 22.7677C9.30919 18.9868 17.6612 12.1979 20.6305 11.9254H27.5056V20.2374H18.0988C14.0898 20.2374 10.8628 23.4604 10.8628 27.4644V28.1342H10.8622L10.8622 123.536C10.8622 127.54 14.0892 130.763 18.0982 130.763H27.5069V139.075H20.9926C18.5872 139.075 16.651 141.008 16.651 143.411V144.494C16.651 146.896 18.5872 148.83 20.9926 148.83H27.5069V151H38.3609V148.83H45.2361C50.6453 148.809 65.0832 137.635 65.136 135.822V121.368C64.928 121.37 64.7233 121.37 64.5232 121.37C62.9041 121.37 61.5801 121.37 61.1553 122.451C60.8808 123.27 60.6331 124.188 60.3977 125.06C60.0357 126.402 59.703 127.635 59.3472 128.232C56.5574 132.013 48.2053 138.802 45.2361 139.075H38.3609V130.763H47.7677C51.7767 130.763 55.0037 127.54 55.0037 123.536V122.866H55.0043V27.4644C55.0043 23.4604 51.7773 20.2374 47.7683 20.2374H38.3596V11.9254H44.874C47.2794 11.9254 49.2155 9.99162 49.2155 7.58923V6.50616C49.2155 4.10377 47.2794 2.17001 44.874 2.17001H38.3596Z" fill="black"/>
</svg>
