<svg width="86" height="154" viewBox="0 0 86 154" fill="none" xmlns="http://www.w3.org/2000/svg">
<path d="M38.0034 152.076C38.3483 153.218 39.4009 154 40.5944 154C41.7682 154 42.6295 152.897 42.3448 151.758L42.251 151.383C41.0307 147.486 19.7231 77.788 19.5611 73.7574C20.3259 72.2854 22.2067 72.0733 22.9898 71.9849C23.1666 71.965 23.2874 71.9513 23.3269 71.931C23.3399 71.9223 23.3453 71.9251 23.3531 71.9292L23.3565 71.931C23.7125 72.038 24.0819 72.1589 24.4689 72.2855C26.304 72.8859 28.535 73.6159 31.6082 73.6201C32.6646 73.6217 33.6451 73.5815 34.6076 73.5421C35.9514 73.4871 37.2603 73.4335 38.6918 73.4969C39.9572 73.5544 41.0623 73.1988 41.669 73.0035C41.9493 72.9133 42.1232 72.8574 42.1574 72.8922C42.1665 72.9015 42.1725 72.9187 42.1754 72.9432L49.9008 55.21C48.975 56.4322 48.0583 57.5412 46.3364 58.5278C45.7854 58.646 45.259 58.7612 44.8233 58.9145C44.0497 59.1854 42.8663 59.5053 41.5418 59.8632C39.599 60.3883 37.3528 60.9954 35.6518 61.6503C35.3797 61.7549 35.1143 61.8569 34.8553 61.9565C25.6542 65.4949 24.5299 65.9273 17.3843 65.9946C14.6963 66.0193 11.752 66.1957 11.4863 68.7427C11.4315 69.267 11.3575 69.7523 11.2893 70.1992C11.0264 71.9235 10.8506 73.0765 12.2022 73.6913L14.8562 75.3822L38.0034 152.076Z" fill="black"/>
<path fill-rule="evenodd" clip-rule="evenodd" d="M56.3312 29.6761C56.3377 29.6832 56.3439 29.6894 56.3498 29.6947C56.3485 29.6951 56.3473 29.6956 56.3461 29.696C56.4667 29.8565 56.5908 30.0184 56.718 30.1814C57.9514 31.7654 58.8662 32.7253 59.6254 33.5219C60.4757 34.4141 61.1309 35.1015 61.8194 36.2313C61.9965 36.4524 62.1725 36.6691 62.3485 36.8859C64.0696 39.0056 65.799 41.1354 68.6814 47.4762C71.8618 54.4649 74.7198 66.8596 74.7198 66.8596L74.8726 75.1196L81.3902 75.2848C81.3902 75.2848 81.8303 76.48 81.8303 78.5448C81.8303 80.6096 79.9615 85.0614 79.9615 85.0614C79.9615 85.0614 78.9551 86.7455 79.2726 88.0168C79.4159 88.5849 79.5067 88.7668 79.5776 88.9085C79.6648 89.0832 79.7217 89.1969 79.8085 89.8973C79.9684 91.1704 78.2174 94.1864 77.2628 94.5039C75.2438 95.2127 75.2161 94.7476 75.1457 93.5635C75.1265 93.2401 75.1041 92.8631 75.037 92.4417C74.7759 91.8246 74.6849 91.8369 73.8638 91.9483C73.6867 91.9723 73.4757 92.0009 73.2217 92.0288C71.8818 92.1786 71.7982 92.2007 71.7363 94.6689C72.5089 97.7885 73.7582 102.098 75.5194 104.773C77.8881 108.374 80.6349 113.802 80.6201 114.876C80.6176 115.228 80.9942 117.238 81.4739 119.346C81.9512 121.453 82.3173 124.228 82.5878 127.18C82.7608 129.059 82.8151 130.737 82.8692 132.409C82.9722 135.587 83.0745 138.746 83.99 143.236C84.1534 144.034 84.4347 145.066 84.7238 146.126L84.7239 146.127C85.3532 148.435 86.0193 150.878 85.5862 151.346C84.8016 152.196 80.7851 152.582 77.514 152.695C76.1339 152.743 72.1391 153.097 69.2252 153.355L69.2234 153.355L69.2206 153.355L69.218 153.355C67.4667 153.51 66.1074 153.631 65.9441 153.629C65.104 152.308 65.1885 152.25 65.3423 152.146C65.438 152.081 65.5604 151.998 65.5039 151.582C66.0127 151.586 72.2457 150.04 73.7556 148.406C76.0936 145.876 76.0862 142.754 76.0809 140.507C76.0803 140.265 76.0798 140.033 76.0822 139.813C76.1294 135.293 74.7957 131.708 72.5749 126.04C69.9657 119.38 66.6203 110.867 66.0549 110.218C65.7049 109.815 63.3995 110.173 61.5823 110.455C60.8821 110.564 60.2544 110.662 59.839 110.7C54.8474 111.158 50.2599 111.102 46.4789 111.056H46.4788C44.479 111.032 42.704 111.01 41.2151 111.069L34.6138 111.029L34.4368 115.071C34.3541 117.786 34.1551 120.673 33.3569 123.302C32.2307 127.011 30.4254 130.442 28.6334 133.848C27.9214 135.202 27.2114 136.551 26.547 137.912C26.2816 138.456 26.0036 139.026 25.7027 139.593C24.4359 141.98 23.5112 145.461 23.4865 147.926C23.4694 149.706 23.2877 150.596 22.8668 151.005C22.5446 151.321 22.2073 151.584 22.1119 151.582C22.0155 151.582 20.7366 151.805 19.2658 152.091C16.0627 152.71 8.66218 152.045 4.01065 151.627C2.6583 151.506 1.53831 151.405 0.821382 151.363C-0.0782509 151.286 -0.024518 150.239 0.0210439 149.352C0.0335225 149.108 0.0453871 148.877 0.0368817 148.681L3.06235 148.298C10.4727 147.366 15.3721 145.114 17.0765 138.4C17.4402 136.973 17.6323 135.766 17.819 134.593C17.9068 134.042 17.9934 133.498 18.096 132.942C20.0069 122.597 22.3631 111.799 25.9617 102.164C26.1324 101.708 26.3622 101.097 26.6206 100.41L26.6207 100.41C27.1395 99.0299 27.7736 97.3438 28.2763 95.9918C29.0261 93.9635 29.9538 91.6332 30.3371 90.822C30.7206 90.0133 31.4711 88.1988 32.0025 86.7829C32.9666 84.2089 33.8985 81.9056 34.5457 80.5116C34.7327 80.1082 35.3447 78.6186 35.9083 77.2001C36.4687 75.7816 37.8583 72.8167 39.0024 70.6141L40.1289 69.0753C40.7585 67.7777 41.3317 66.62 41.533 66.3C41.7046 66.0258 41.9476 65.6902 42.204 65.3359L42.2045 65.3352L42.2045 65.3351C42.8079 64.5017 43.4862 63.5648 43.4862 63.0823C43.4862 62.3938 42.9183 61.2554 42.3447 60.5675C42.081 60.2513 42.1061 58.7559 42.1338 57.1057C42.1666 55.1493 42.2031 52.9753 41.7666 52.2899C41.2011 51.4028 40.464 50.7434 39.7563 50.1103C39.4578 49.8433 39.1644 49.5808 38.8915 49.3081C37.9743 48.3886 37.5214 47.585 38.0944 45.7486C38.3878 44.8056 39.7918 43.4336 41.2087 42.0491C41.9421 41.3324 42.6791 40.6123 43.2671 39.9467C44.844 38.0845 46.59 35.0254 46.7785 32.9248C46.7812 32.798 46.7994 32.5872 46.8208 32.3374C46.8781 31.6713 46.9593 30.7276 46.8353 30.3562C46.0224 27.9387 44.2033 27.849 42.2403 27.7523L42.2402 27.7522C41.8998 27.7355 41.5551 27.7185 41.2106 27.6891C40.8171 27.5884 39.523 27.0007 39.3266 25.917C39.1298 24.8302 39.2307 20.9805 39.2307 20.9805H37.7454C37.7454 20.9805 38.9405 17.4235 38.9405 16.7324C38.9405 16.0414 39.0364 13.7626 39.0364 13.7626L35.1867 12.1818C35.1867 12.1818 34.7861 11.3976 35.3786 11.3976C35.9711 11.3976 37.9463 10.8054 39.7245 9.81733C41.5033 8.82864 47.5366 0.923025 47.5366 0.923025C47.5366 0.923025 47.7082 0.91308 48.0039 0.908234L48.006 0.912761C48.8964 0.898222 50.8911 0.94735 52.6692 1.6138C55.0405 2.50115 59.9866 6.45146 59.9866 6.45146C59.9866 6.45146 59.7848 14.4535 60.0825 15.5397C60.2102 16.0058 60.429 16.4737 60.6369 16.9183C60.9126 17.5081 61.1693 18.057 61.1693 18.507C61.1693 19.2987 60.7732 20.2867 59.5876 20.0879C58.4026 19.8911 56.5206 19.9925 56.5206 19.9925C56.5206 19.9925 56.6264 22.9497 56.2303 23.9378C55.8342 24.9258 55.3374 25.8207 55.3374 25.8207C55.3374 25.8207 55.2366 27.3034 55.4334 27.9938C55.4821 28.1653 55.955 29.1256 56.2248 29.5335C56.26 29.5809 56.2954 29.6285 56.3312 29.6761ZM62.9751 53.6592C65.7941 59.4679 67.4759 66.0292 68.0765 71.5731C67.9534 73.1016 63.4253 69.4585 59.9352 66.0318C58.461 64.5857 58.4669 64.446 58.5043 63.5758C58.51 63.4429 58.5164 63.2929 58.5184 63.1185C59.5586 60.0903 62.1144 53.8436 62.9751 53.6592Z" fill="black"/>
</svg>
