<svg width="231" height="231" viewBox="0 0 231 231" fill="none" xmlns="http://www.w3.org/2000/svg">
<path d="M149.417 92.0854C153.737 87.7749 158.013 84.9037 163.251 81.4137C165.766 79.7348 171.015 77.9244 176.531 77.9357C178.728 77.9294 179.46 78.0751 180.096 78.2016C180.344 78.251 180.578 78.2975 180.879 78.3309C181.903 78.4027 182.378 78.2443 182.697 78.0935C182.911 77.9806 184.912 77.2031 186.518 76.5793C187.285 76.2815 187.961 76.0188 188.31 75.8801C189.388 75.4849 189.515 76.341 189.337 76.7496C189.134 77.1022 188.785 77.5464 188.468 77.9354C188.087 78.371 188.563 78.7195 188.784 78.8049C189.07 78.8468 190.523 79.8325 190.523 79.8325C190.523 79.8325 190.307 79.8926 189.021 79.9115C187.77 79.9566 187.929 80.8135 188.073 81.2554C188.246 81.6379 190.022 86.173 190.049 87.1841C190.038 87.6348 189.965 88.343 189.885 89.1234C189.773 90.218 189.646 91.4546 189.654 92.3222C189.641 97.5439 190.966 102.384 191.389 103.929L191.393 103.942C191.734 105.394 191.386 106.06 191.235 106.314C191.163 106.45 191.005 106.862 190.818 107.351C190.569 107.999 190.268 108.783 190.049 109.239C189.61 110.025 188.88 109.993 188.231 109.792C187.612 109.612 186.096 108.369 186.096 108.369C185.836 108.565 185.227 109.555 185.227 109.555C182.959 108.412 183.284 105.48 183.45 103.986C183.464 103.854 183.478 103.733 183.488 103.626C183.678 102.349 182.22 101.937 181.67 101.808C180.068 101.305 178.981 100.222 177.939 99.1834L177.796 99.0413L177.751 98.9946C177.532 98.7689 177.344 98.5741 177.006 98.5671C176.448 98.6579 176.352 99.2405 176.294 99.7528C175.428 106.634 172.418 111.802 170.998 113.349C170.015 114.361 170.036 115.75 170.048 116.504L170.049 116.59C170.04 117.336 169.67 122.299 168.468 125.444C167.871 127.021 168.022 127.626 168.942 128.764C169.118 128.992 173.231 133.268 176.285 136.443L176.286 136.445C177.975 138.2 179.339 139.619 179.535 139.831C180.591 141.021 181.765 143.208 181.907 144.811C181.934 145.738 182.22 146.753 182.46 147.261C182.727 147.831 186.121 154.619 186.887 156.036C187.577 157.288 187.506 158.031 187.454 158.571C187.449 158.624 187.444 158.674 187.44 158.723C187.129 161.195 184.817 166.676 183.883 167.972C183.415 168.545 182.949 168.86 182.539 168.446C179.029 164.637 179.456 162.122 179.456 162.122C180.412 161.057 181.078 160.708 182.065 160.225C182.916 159.763 182.237 158.983 181.829 158.516C181.768 158.445 181.713 158.382 181.67 158.328C181.076 157.57 180.981 156.821 180.848 155.771C180.832 155.652 180.817 155.53 180.8 155.403C180.704 154.729 180.267 153.325 179.986 152.421L179.931 152.241C178.855 148.852 177.576 147.445 174.792 144.495C173.223 142.813 168.388 138.673 165.367 136.086C164.155 135.048 163.235 134.26 162.935 133.981C161.825 132.987 160.937 133.558 160.563 133.902C159.411 134.967 157.648 137.958 157.638 140.7C157.575 142.756 156.433 144.564 155.583 145.601C153.627 147.993 151.571 151.645 150.02 154.4C149.592 155.16 149.202 155.852 148.864 156.43C148.377 157.346 148.468 157.695 148.468 157.695C148.468 157.695 148.44 159.566 148.468 160.146C148.44 161.748 148.625 162.258 149.338 163.624C149.645 164.197 152.183 168.193 152.658 168.92C153.135 169.716 152.722 169.969 152.263 170.185C152.241 170.196 152.218 170.209 152.192 170.223C151.704 170.488 150.433 171.176 147.915 171.213C145.237 171.174 143.251 170.106 143.251 170.106C143.587 169.335 144.753 167.814 144.753 167.814C144.785 167.769 144.813 167.733 144.839 167.7C145 167.494 145.05 167.43 145.069 166.628C145.046 165.719 144.856 165.592 143.567 164.81C142.319 164.07 142.699 162.833 142.856 162.359C143.017 161.818 143.873 160.169 144.595 159.118C145.332 158.075 145.49 155.284 145.464 154.454C145.49 149.656 145.829 147.3 149.891 140.383C149.9 140.366 149.909 140.348 149.918 140.331C149.929 140.311 149.939 140.292 149.95 140.272C150.124 139.944 150.264 139.68 150.128 138.961C149.594 135.872 149.97 131.53 149.97 131.53C149.97 131.53 143.381 134.191 132.421 134.218C119.45 134.192 110.411 129.816 109.496 129.317C108.571 128.864 108 129.245 107.757 129.633C107.182 130.763 106.212 131.474 105.465 132.005C105.082 132.322 105.019 132.702 105.069 133.19C105.307 137.019 104.741 140.505 103.093 142.597C102.182 143.783 102.358 144.516 102.493 145.082C102.51 145.152 102.526 145.219 102.54 145.285C102.713 146.438 102.903 147.482 103.084 148.48C103.467 150.581 103.812 152.481 103.884 154.771C104.007 157.335 104.164 158.198 105.702 159.197C110.113 161.983 111.888 164.518 114.635 169.316C115.007 169.936 114.859 170.891 114.318 170.976C113.011 171.111 107.366 170.826 106.967 170.659C106.097 169.589 105.938 166.639 105.939 166.233C105.947 166.179 105.956 166.127 105.965 166.075C106.026 165.716 106.085 165.374 105.781 164.968C105.407 164.586 104.513 164.654 103.729 164.713C103.648 164.719 103.567 164.725 103.488 164.731C101.239 165.042 101.11 163.023 101.117 162.359C100.905 157.484 98.9296 150.437 95.8996 145.364C94.627 143.231 94.7299 142.826 95.1881 141.253C95.3765 140.758 96.8037 138.411 97.2434 137.696C97.5892 137.085 97.3171 136.69 97.1406 136.434C97.1206 136.405 97.1019 136.378 97.0854 136.352C96.8672 136.16 96.1691 136.191 95.6624 136.431C95.1541 136.698 85.702 141.016 85.702 141.016C85.702 141.016 85.1314 142.724 84.9115 143.546C84.8543 143.758 84.8018 143.955 84.7528 144.139L84.7524 144.141C84.1245 146.499 84.0628 146.731 82.0657 148.526C81.5948 148.975 81.5533 149.546 81.5206 149.996C81.5179 150.034 81.5152 150.071 81.5123 150.107C81.5009 150.221 81.4381 150.818 81.3498 151.658L81.3493 151.663C81.09 154.13 80.6114 158.683 80.5637 159.276C80.485 160.002 80.4137 160.811 80.7218 161.569C80.9843 162.381 80.9843 163.499 80.6428 164.256C79.2795 166.909 76.56 168.616 73.6073 168.604C72.587 168.613 72.1053 168.367 72.1053 168.367C70.3511 164.07 71.631 159.909 71.631 159.909C71.631 159.909 73.6576 160.812 74.5559 160.778C75.4656 160.811 75.8223 159.669 75.7417 159.276C75.632 158.955 75.8223 158.789 76.1369 158.565C76.3932 158.313 76.9642 157.742 77.3227 155.877C77.8612 152.746 77.3227 139.356 77.3227 139.356C77.2498 138.188 77.6778 137.904 78.0341 137.696C78.3438 137.428 81.3543 135.641 81.3543 135.641C81.3543 135.641 82.4357 133.764 82.54 131.214C82.5736 130.203 82.0708 128.744 81.4469 126.933C80.4744 124.112 79.2079 120.437 79.2199 116.274C79.2004 109.501 81.8286 104.1 81.8286 104.1C79.2004 104.22 71.1598 107.122 72.2634 117.064C72.8081 122.1 68.8508 136.096 59.7734 136.115C54.841 136.095 53.2912 132.795 53.2912 132.795C53.2912 132.795 54.175 133.145 54.7932 133.111C59.9951 133.146 62.4532 126.279 62.4611 118.803C62.4534 112.987 65.1019 108.709 68.3899 105.048C71.3188 101.762 74.173 100.746 81.5914 100.78C83.2444 100.747 86.0182 101.017 86.0182 101.017C91.8554 98.5102 97.4696 97.0833 102.856 97.0644C108.222 97.0834 115.501 99.2715 116.769 99.7521C118.243 100.286 138.077 100.227 139.852 98.8826C141.074 97.9633 142.026 97.3688 142.54 97.1435C144.053 96.4294 148.758 92.7705 149.417 92.0854Z" fill="black"/>
<path d="M116.332 86.6521C116.028 81.4221 116.62 77.0395 117.363 71.6862C117.718 69.1138 119.542 64.7091 122.686 61.1692C123.93 59.7535 124.44 59.3657 124.882 59.0289C125.055 58.8972 125.218 58.7733 125.41 58.5989C126.038 57.9816 126.207 57.5861 126.292 57.295C126.341 57.0934 126.981 55.3642 127.494 53.9769C127.739 53.3146 127.956 52.7303 128.065 52.4272C128.425 51.5091 129.045 51.9149 129.206 52.2613C129.316 52.5925 129.402 53.0699 129.471 53.495C129.533 53.9878 130.027 53.8802 130.208 53.7865C130.397 53.6263 131.854 53.2531 131.854 53.2531C131.854 53.2531 131.77 53.4261 131.051 54.2637C130.369 55.0938 131.008 55.4792 131.372 55.6382C131.716 55.7446 135.629 57.1833 136.292 57.7411C136.574 58.0047 136.987 58.4544 137.441 58.9499C138.078 59.6449 138.798 60.4301 139.358 60.9188C142.694 63.898 146.547 65.8 147.777 66.4073L147.787 66.4126C148.911 67.0188 149.14 67.6221 149.216 67.8635C149.263 67.987 149.437 68.323 149.643 68.7218C149.917 69.2505 150.248 69.8895 150.415 70.2901C150.669 71.0195 150.233 71.4708 149.736 71.7738C149.268 72.0692 147.611 72.3364 147.611 72.3364C147.588 72.6157 147.876 73.5701 147.876 73.5701C145.855 74.378 144.162 72.5008 143.3 71.5439C143.223 71.4595 143.154 71.3823 143.091 71.3148C142.381 70.4654 141.289 71.1688 140.893 71.4491C139.661 72.1924 138.349 72.275 137.092 72.3542L136.92 72.3651L136.864 72.3677C136.595 72.3798 136.363 72.3902 136.166 72.6035C135.908 73.0135 136.226 73.407 136.521 73.7355C140.435 78.2079 142.033 83.0839 142.217 84.8769C142.306 86.0843 143.208 86.8609 143.697 87.2824L143.753 87.3309C144.225 87.7612 147.193 90.8232 148.524 93.385C148.841 93.9908 149.114 94.3655 149.446 94.598L130.74 120.738L114.287 98.1012L114.231 97.8402C114.691 97.8262 115.176 97.581 115.247 96.6691C115.353 95.3603 115.448 94.6835 115.662 93.9516C116.13 92.3498 116.436 88.4316 116.332 86.6521Z" fill="black"/>
<path d="M95.9039 101.295C93.1364 98.8323 91.241 96.3446 88.9355 93.2963C87.8266 91.8325 86.5364 88.7175 86.338 85.3757C86.2525 84.0453 86.3133 83.5966 86.3661 83.2069C86.3868 83.0546 86.4062 82.9113 86.4152 82.7279C86.4205 82.1052 86.307 81.8231 86.204 81.635C86.1277 81.5097 85.5831 80.325 85.1461 79.3745C84.9375 78.9207 84.7534 78.5204 84.6566 78.3141C84.3774 77.6751 84.8904 77.5679 85.1442 77.6606C85.3649 77.771 85.6466 77.9668 85.8936 78.145C86.1712 78.3603 86.3643 78.0596 86.4077 77.9224C86.4223 77.7476 86.9644 76.8323 86.9644 76.8323C86.9644 76.8323 87.0088 76.9609 87.0681 77.7393C87.1419 78.4957 87.6542 78.3688 87.916 78.266C88.1409 78.1474 90.8174 76.9099 91.4278 76.8573C91.7008 76.848 92.1318 76.8667 92.6067 76.8874C93.2729 76.9163 94.0254 76.949 94.5498 76.9134C97.708 76.7347 100.586 75.7594 101.504 75.448L101.512 75.4453C102.377 75.1866 102.793 75.374 102.952 75.4564C103.037 75.4948 103.292 75.5758 103.595 75.672C103.996 75.7995 104.481 75.9537 104.765 76.0703C105.257 76.308 105.265 76.7516 105.167 77.152C105.081 77.5333 104.386 78.4956 104.386 78.4956C104.515 78.6467 105.136 78.9801 105.136 78.9801C104.529 80.3947 102.744 80.3024 101.834 80.2554C101.754 80.2512 101.68 80.2475 101.615 80.2451C100.836 80.1753 100.641 81.0734 100.583 81.4113C100.339 82.3991 99.7244 83.0963 99.135 83.7649L99.0544 83.8564L99.0278 83.8856C98.8994 84.026 98.7887 84.1471 98.797 84.3522C98.8727 84.6865 99.2286 84.7242 99.5405 84.7408C103.734 85.0201 106.972 86.6592 107.96 87.464C108.608 88.023 109.447 87.9607 109.903 87.9269L109.955 87.923C110.406 87.9022 113.422 87.9492 115.368 88.5648C115.83 88.7092 116.154 88.76 116.436 88.7102L120.154 111.136L100.606 108.044L100.448 107.941C100.671 107.704 100.791 107.338 100.37 106.847C99.769 106.139 99.4777 105.754 99.2187 105.281C98.6519 104.246 96.8455 102.133 95.9039 101.295Z" fill="black"/>
</svg>
