<svg width="169" height="92" viewBox="0 0 169 92" fill="none" xmlns="http://www.w3.org/2000/svg">
<path d="M168.327 66.558L162.588 72.2968C162.377 72.3064 162.169 72.3208 161.94 72.3208C156.657 72.3208 156.475 69.3789 152.465 69.2011C148.455 69.3787 148.27 72.32 142.987 72.32C137.705 72.3199 137.52 69.3787 133.51 69.2011C129.5 69.3789 129.319 72.3199 124.036 72.32C118.753 72.3199 118.572 69.3795 114.561 69.2019C110.55 69.379 110.368 72.32 105.085 72.32C99.8015 72.32 99.6189 69.3787 95.6088 69.2011C91.5986 69.3789 91.416 72.3199 86.133 72.32C80.8496 72.32 80.6685 69.3782 76.6573 69.2011C72.646 69.3787 72.4658 72.3208 67.1824 72.3208C61.899 72.3208 61.7171 69.3782 57.7058 69.2011L57.7067 72.3208C62.9901 72.3208 62.9898 75.4396 67.1824 75.4396C71.375 75.4395 71.3739 72.32 76.6573 72.32C81.9407 72.32 81.9404 75.4388 86.133 75.4388C90.3253 75.4387 90.3265 72.3203 95.6088 72.32C100.891 72.3203 100.893 75.4396 105.085 75.4396C109.278 75.4397 109.278 72.3208 114.561 72.3208C119.845 72.3208 119.842 75.4396 124.035 75.4396C128.227 75.4397 128.228 72.3205 133.51 72.32C138.792 72.3204 138.795 75.4388 142.987 75.4388C147.18 75.4388 147.183 72.3205 152.465 72.32C156.654 72.3203 157.527 74.2774 159.797 75.0891L157.419 77.4671C155.88 76.6091 154.834 75.5428 152.464 75.4379C148.454 75.6154 148.27 78.5577 142.987 78.5577C137.705 78.5577 137.521 75.6154 133.511 75.4379C129.501 75.6154 129.318 78.5568 124.035 78.5568C118.752 78.5568 118.572 75.6172 114.561 75.4396C110.55 75.6167 110.369 78.5568 105.085 78.5568C99.8025 78.5568 99.6198 75.6155 95.6096 75.438C91.5994 75.6155 91.4159 78.5577 86.133 78.5577C80.8496 78.5577 80.6685 75.6158 76.6573 75.4388C72.646 75.6163 72.4658 78.5568 67.1824 78.5568C61.8989 78.5568 61.7179 75.6149 57.7067 75.4379L57.7067 78.5568C62.9901 78.5568 62.9898 81.6756 67.1824 81.6756C71.375 81.6755 71.3738 78.5577 76.6573 78.5577C81.9407 78.5577 81.9404 81.6765 86.133 81.6765C90.3253 81.6764 90.3265 78.5581 95.6088 78.5577C100.891 78.5581 100.892 81.6764 105.085 81.6765C109.277 81.6765 109.278 78.5568 114.561 78.5568C119.845 78.5568 119.843 81.6764 124.036 81.6765C128.228 81.6765 128.229 78.5574 133.511 78.5568C138.793 78.5574 138.795 81.6765 142.987 81.6765C147.18 81.6765 147.183 78.5582 152.465 78.5577C153.89 78.5578 154.924 78.7887 155.766 79.1204L153.149 81.7378C152.933 81.7083 152.707 81.6872 152.465 81.6764C148.455 81.8539 148.27 84.7935 142.987 84.7935C137.705 84.7935 137.52 81.8539 133.51 81.6764C129.5 81.8539 129.319 84.7935 124.036 84.7935C118.753 84.7935 118.572 81.853 114.561 81.6755C110.55 81.8526 110.368 84.7936 105.084 84.7935C99.8016 84.7936 99.6189 81.8539 95.6088 81.6764C91.5986 81.8537 91.4159 84.7936 86.133 84.7935C80.8496 84.7936 80.6685 81.8534 76.6573 81.6764C72.646 81.8539 72.4659 84.7944 67.1824 84.7944C61.899 84.7944 61.7179 81.8526 57.7067 81.6755L57.7058 84.7953C62.9892 84.7953 62.9897 87.9133 67.1824 87.9132C71.3751 87.9133 71.3738 84.7953 76.6573 84.7953C81.9407 84.7953 81.9404 87.9141 86.133 87.9141C90.3253 87.9141 90.3265 84.7957 95.6087 84.7953C100.891 84.7957 100.892 87.9141 105.084 87.9141C109.277 87.9141 109.278 84.7944 114.561 84.7944C119.845 84.7944 119.843 87.9141 124.036 87.9141C128.228 87.9142 128.228 84.7958 133.51 84.7953C138.792 84.7958 138.795 87.9141 142.987 87.9141C146.285 87.9141 146.999 85.99 149.72 85.1661L143.887 90.9996C143.604 91.0188 143.306 91.0313 142.987 91.0313C137.705 91.0313 137.52 88.0899 133.51 87.9124C129.5 88.0902 129.318 91.0322 124.035 91.0322C118.752 91.0322 118.572 88.0917 114.56 87.9142C110.549 88.0912 110.369 91.0322 105.085 91.0322C99.8025 91.0322 99.6189 88.0899 95.6088 87.9124C91.5986 88.0899 91.416 91.0313 86.133 91.0313C80.8496 91.0313 80.6685 88.0912 76.6573 87.9142C72.646 88.0917 72.4658 91.0322 67.1824 91.0322C61.899 91.0322 61.7179 88.0904 57.7067 87.9134L57.7067 91.0322L34.1471 91.0313L0.116028 57.0001L12.6237 44.4924H57.7058L57.7058 66.0823C62.9892 66.0823 62.9897 69.2021 67.1824 69.202C71.375 69.2019 71.3739 66.0823 76.6573 66.0823C81.9407 66.0823 81.9404 69.2012 86.133 69.2012C90.3253 69.2012 90.3265 66.0828 95.6088 66.0823C100.891 66.0828 100.892 69.2012 105.084 69.2012C109.277 69.2012 109.277 66.0823 114.56 66.0823C119.844 66.0823 119.843 69.2012 124.036 69.2011C128.228 69.2012 128.228 66.0828 133.51 66.0823C138.792 66.0828 138.795 69.2011 142.987 69.2011C147.18 69.2011 147.183 66.0828 152.465 66.0823C157.747 66.0828 157.747 69.2012 161.939 69.2011C165.097 69.2011 165.877 67.4313 168.327 66.558Z" fill="black"/>
<path fill-rule="evenodd" clip-rule="evenodd" d="M122.184 4.1318C123.016 3.56984 125.005 2.22656 125.908 2.77451C126.734 3.28208 125.664 3.85403 125.242 4.07955C125.211 4.09586 125.184 4.11036 125.161 4.12289C124.253 4.62076 123.695 5.14653 122.977 5.85632C123.695 7.14 123.741 8.66855 122.68 9.61842C122.529 9.45873 122.383 9.2883 122.236 9.11683C121.762 8.5654 121.279 8.00309 120.602 7.7519C120.024 7.53312 119.836 7.45695 119.641 7.41588C119.319 7.34798 118.976 7.37601 116.815 7.01391C114.649 6.65446 114.261 6.44211 113.867 6.43127C113.595 6.42377 113.32 6.51258 112.453 6.71564C111.143 7.01654 110.363 7.87212 109.53 8.78692C109.301 9.03812 109.068 9.29378 108.818 9.54365C109.09 9.7751 109.363 9.99765 109.633 10.2179C110.669 11.0626 111.664 11.874 112.399 13.0268C113.154 14.1958 113.474 15.1715 111.859 15.33C110.215 15.5067 108.766 15.1955 107.151 14.7502C106.828 15.4009 106.49 16.0466 106.152 16.6928C105.039 18.8229 103.922 20.9592 103.319 23.3002C102.974 24.649 102.841 25.0642 102.809 25.4872C102.763 26.0821 102.915 26.6924 102.956 29.9373C102.994 33.1674 102.915 33.6997 102.938 34.2277C102.953 34.5708 103.01 34.9121 103.17 35.9906C103.346 37.1955 103.68 37.7244 104.43 38.7032C104.612 38.942 104.793 39.1826 104.975 39.4236C105.907 40.663 106.847 41.912 108 42.9637C109.245 44.1031 109.709 44.477 110.073 44.7702C110.573 45.1735 110.884 45.4243 112.777 47.3034C114.479 48.9935 114.724 49.3601 115.045 49.6376C115.269 49.8306 115.53 49.9804 116.344 50.5022C117.7 51.3714 119.209 51.9152 120.721 52.4608C121.971 52.9116 123.225 53.3636 124.399 54.0013C126.342 55.0568 127.287 56.3096 128.274 58.2399C128.717 59.1151 128.829 59.3874 129.001 59.6149C129.22 59.9055 129.536 60.1227 130.765 61.4311C130.957 61.6342 131.19 61.8665 131.445 62.1208C132.622 63.294 134.27 64.9374 134.614 66.3581C134.822 66.401 135.032 66.4487 135.242 66.4966C136.061 66.6829 136.892 66.8719 137.697 66.7873C140.032 66.3727 141.17 64.2549 142.063 62.2737C142.069 62.2682 142.077 62.2624 142.084 62.2564C142.264 62.1082 142.613 61.8222 142.862 62.1038C143.598 63.6685 143.58 65.1125 142.852 66.6243C142.228 67.8232 141.168 68.8722 139.733 69.0405C138.815 68.9946 137.906 68.7545 137.001 68.5156C136.569 68.4016 136.139 68.2879 135.708 68.1956L133.713 67.4387L124.51 70.9296L115.306 66.804L111.795 68.56C111.686 68.4947 111.568 68.4227 111.439 68.3429C110.305 67.6389 109.948 67.4418 109.641 67.1845C109.22 66.8321 108.894 66.3669 106.799 64.3326C104.691 62.2827 104.415 61.6946 103.953 61.3827C103.612 61.153 103.171 61.073 101.821 60.6692C100.553 60.2924 100.178 60.2136 99.8388 60.058C99.4259 59.8689 99.065 59.5662 97.2099 58.4753C96.1648 57.8646 95.4768 57.4995 94.939 57.2141C93.7036 56.5585 93.2604 56.3233 91.1018 54.4981C89.385 53.0413 89.1605 52.693 88.8472 52.4687C88.6381 52.319 88.3894 52.2246 87.631 51.8926C86.8745 51.5628 86.6246 51.4718 86.4177 51.3216C86.1084 51.097 85.8951 50.7403 84.2298 49.2564C81.9511 47.2271 80.0065 45.4255 78.3076 42.9327C78.2571 42.8583 78.193 42.76 78.1174 42.6442C77.4457 41.615 75.8652 39.1933 74.811 39.631C74.4905 39.766 74.3657 39.7928 74.3176 39.8685C74.2501 39.9744 74.333 40.176 74.239 40.9044C73.9518 43.0537 73.9715 46.1093 75.0837 48.0998C75.6409 49.0824 76.0327 49.3994 76.894 50.0961L76.897 50.0985C76.8593 50.2741 76.8193 50.4449 76.7799 50.613C76.6026 51.3693 76.4384 52.0702 76.5595 52.8953C76.6683 53.6493 77.1638 54.0546 77.6842 54.4802C78.0916 54.8134 78.5143 55.1591 78.7781 55.6943C78.9959 56.1333 79.1066 56.2702 79.0854 56.3822C79.0594 56.5206 78.8325 56.6211 78.3588 57.2051C77.9107 57.7582 77.6598 58.4143 77.414 59.0572C77.0781 59.9355 76.7517 60.7891 75.9449 61.3218C75.0689 60.0293 75.0344 59.8233 74.8034 58.4415C74.7556 58.1561 74.6995 57.8206 74.6259 57.4149C74.5833 57.1813 74.5453 56.9638 74.5098 56.7602C74.1764 54.8496 74.0569 54.1647 72.3013 52.9526C70.4207 51.6422 70.4738 50.6588 70.5759 48.7684C70.6129 48.0832 70.6564 47.2789 70.6165 46.2966C70.4523 42.1761 70.2874 39.4598 68.9743 35.6005C68.9211 35.4427 68.8646 35.2809 68.8071 35.116C68.2595 33.5471 67.6137 31.6966 68.8019 30.4252C71.4957 27.53 75.3917 31.357 77.756 33.6794C78.0456 33.9639 78.3121 34.2257 78.5507 34.4499C80.4006 36.1808 80.7261 36.5598 81.1007 36.8817C81.3837 37.1249 81.6946 37.3355 82.712 38.0718C82.7988 38.1347 82.9102 38.2256 83.036 38.3282C83.6723 38.8476 84.6787 39.6691 84.759 38.6935C84.8057 38.1701 84.8139 38.0015 84.8591 37.8435C84.9295 37.5974 85.09 37.377 85.627 35.8808C86.5501 33.3214 88.0009 31.1019 89.4565 28.875C90.5149 27.2557 91.5759 25.6325 92.4383 23.8721C93.1674 22.3749 93.3709 20.7291 93.5748 19.0788C93.7537 17.6316 93.933 16.181 94.4676 14.8242C94.7896 14.0149 94.9684 13.8589 94.9776 13.6935C94.9846 13.566 94.8909 13.4329 94.6841 12.9907C94.3771 12.3119 93.8384 11.7869 93.2926 11.2551C92.8558 10.8295 92.4146 10.3995 92.084 9.88284C91.6311 9.16261 91.0538 8.81985 90.4544 8.46402C90.0106 8.20053 89.5548 7.92988 89.1284 7.49347C88.2065 6.53314 88.7047 4.72708 89.2822 3.74666C90.2765 2.03598 91.4794 2.44508 93.1667 3.01894C93.338 3.07719 93.5142 3.13713 93.6957 3.19673C94.742 3.53768 95.7613 3.70465 96.7709 3.87002C97.9977 4.07097 99.21 4.26956 100.439 4.77513C103.144 5.88629 106.71 5.45683 109.318 4.55224C110.445 4.15648 111.181 3.4501 111.948 2.71362C112.376 2.30276 112.814 1.88253 113.335 1.50164C113.895 1.09592 116.27 -0.586071 116.947 0.606915C117.165 0.996963 116.398 1.53023 115.678 2.02985C115.233 2.33899 114.807 2.63525 114.644 2.87673C113.824 4.08803 115.157 4.3754 116.245 4.6101C116.415 4.64671 116.578 4.68205 116.727 4.7194C118.073 5.05062 118.325 5.16726 118.588 5.20774C118.783 5.2378 118.985 5.22585 119.647 5.2286C120.299 5.23159 120.5 5.26265 120.666 5.2006C120.878 5.1218 121.033 4.89281 121.985 4.2654C122.04 4.22893 122.107 4.1837 122.184 4.1318Z" fill="black"/>
</svg>
